<?xml version="1.0" encoding="UTF-8"?><svg id="a" xmlns="http://www.w3.org/2000/svg" viewBox="0 0 281.39 176.39"><defs><style>.b{fill:#fff;}.c{fill:red;}</style></defs><path class="c" d="M62.4,148.7L26.73,0h49.8l21.54,111.96h.72l33.32-93.25c15.34,0,30.07,0,44.74,0l32.84,93.25h.72L231.59,0h49.8l-34.97,148.7c-4.24,18.37-14.36,27.55-30.37,27.55h-21.9l-39.21-111.62-40.62,111.62h-21.54c-15.78,0-25.91-9.18-30.38-27.55Z"/><path class="b" d="M35.67,148.84L0,.15h49.8l21.54,111.96h.72L105.38,18.86c15.34,0,30.07,0,44.74,0l32.84,93.25h.72L204.86.15h49.8l-34.97,148.7c-4.24,18.37-14.36,27.55-30.37,27.55h-21.9l-39.21-111.62-40.62,111.62h-21.54c-15.78,0-25.91-9.18-30.38-27.55Z"/></svg>